# xmcd
#
# Track frame offsets: 
#        150
#        19931
#        40847
#        55104
#        70893
#        100022
#        116974
#        141429
#        158876
#
# Disc length: 2444 seconds
#
# Revision: 4
# Processed by: cddbd v1.5.2PL0 Copyright (c) Steve Scherf et al.
# Submitted via: ExactAudioCopy v1.0b4
#
DISCID=7c098a09
DTITLE=Michael Lee Firkins - Michael Lee Firkins
DYEAR=1990
DGENRE=Instrumental Blues Rock
TTITLE0=Laughing Stacks
TTITLE1=24 Grand Avenue
TTITLE2=Runaway Train
TTITLE3=Cactus Cruz
TTITLE4=Deja Blues
TTITLE5=Space Crickets
TTITLE6=Rain In The Tunnel
TTITLE7=Hula Hoops
TTITLE8=The Sargasso Sea
EXTD=YEAR: 1990
EXTT0=
EXTT1=
EXTT2=
EXTT3=
EXTT4=
EXTT5=
EXTT6=
EXTT7=
EXTT8=
PLAYORDER=
